<svg xmlns="http://www.w3.org/2000/svg" fill="none" height="16px" width="16px" viewBox="0 0 24 24" class="sc-16r8icm-0 coGWQa"><path d="M5.7 14.7H4.8C4.32261 14.7 3.86477 14.5104 3.52721 14.1728C3.18964 13.8352 3 13.3774 3 12.9V4.8C3 4.32261 3.18964 3.86477 3.52721 3.52721C3.86477 3.18964 4.32261 3 4.8 3H12.9C13.3774 3 13.8352 3.18964 14.1728 3.52721C14.5104 3.86477 14.7 4.32261 14.7 4.8V5.7M11.1 9.3H19.2C20.1941 9.3 21 10.1059 21 11.1V19.2C21 20.1941 20.1941 21 19.2 21H11.1C10.1059 21 9.3 20.1941 9.3 19.2V11.1C9.3 10.1059 10.1059 9.3 11.1 9.3Z" stroke="currentColor" stroke-width="2" stroke-linecap="round" stroke-linejoin="round"></path></svg>